  0
SECTION
  2
HEADER
  9
$ACADVER
  1
AC1006
  9
$DWGCODEPAGE
  3
ansi_1252
  9
$INSBASE
 10
0.0
 20
0.0
 30
0.0
  9
$EXTMIN
 10
-650.526742569187
 20
0.0
  9
$EXTMAX
 10
650.526742569187
 20
4701.007541265146
  9
$LIMMIN
 10
0.0
 20
0.0
  9
$LIMMAX
 10
420.0
 20
297.0
  9
$ORTHOMODE
 70
     1
  9
$REGENMODE
 70
     1
  9
$FILLMODE
 70
     1
  9
$QTEXTMODE
 70
     0
  9
$MIRRTEXT
 70
     1
  9
$DRAGMODE
 70
     2
  9
$LTSCALE
 40
1.0
  9
$OSMODE
 70
  4143
  9
$ATTMODE
 70
     1
  9
$TEXTSIZE
 40
2.5
  9
$TRACEWID
 40
1.0
  9
$TEXTSTYLE
  7
STANDARD
  9
$CLAYER
  8
0
  9
$CELTYPE
  6
BYLAYER
  9
$CECOLOR
 62
   256
  9
$DIMSCALE
 40
1.0
  9
$DIMASZ
 40
2.5
  9
$DIMEXO
 40
0.625
  9
$DIMDLI
 40
3.75
  9
$DIMRND
 40
0.0
  9
$DIMDLE
 40
0.0
  9
$DIMEXE
 40
1.25
  9
$DIMTP
 40
0.0
  9
$DIMTM
 40
0.0
  9
$DIMTXT
 40
2.5
  9
$DIMCEN
 40
2.5
  9
$DIMTSZ
 40
0.0
  9
$DIMTOL
 70
     0
  9
$DIMLIM
 70
     0
  9
$DIMTIH
 70
     0
  9
$DIMTOH
 70
     0
  9
$DIMSE1
 70
     0
  9
$DIMSE2
 70
     0
  9
$DIMTAD
 70
     1
  9
$DIMZIN
 70
     8
  9
$DIMBLK
  1

  9
$DIMASO
 70
     1
  9
$DIMSHO
 70
     1
  9
$DIMPOST
  1

  9
$DIMAPOST
  1

  9
$DIMALT
 70
     0
  9
$DIMALTD
 70
     3
  9
$DIMALTF
 40
0.03937007874
  9
$DIMLFAC
 40
1.0
  9
$DIMTOFL
 70
     1
  9
$DIMTVP
 40
0.0
  9
$DIMTIX
 70
     0
  9
$DIMSOXD
 70
     0
  9
$DIMSAH
 70
     0
  9
$DIMBLK1
  1

  9
$DIMBLK2
  1

  9
$LUNITS
 70
     2
  9
$LUPREC
 70
     2
  9
$SKETCHINC
 40
1.0
  9
$FILLETRAD
 40
10.0
  9
$AUNITS
 70
     0
  9
$AUPREC
 70
     2
  9
$MENU
  1
.
  9
$ELEVATION
 40
0.0
  9
$THICKNESS
 40
0.0
  9
$LIMCHECK
 70
     0
  9
$CHAMFERA
 40
0.0
  9
$CHAMFERB
 40
0.0
  9
$SKPOLY
 70
     0
  9
$TDCREATE
 40
2460882.002203009
  9
$TDUPDATE
 40
2460882.05908419
  9
$TDINDWG
 40
0.0430818287
  9
$TDUSRTIMER
 40
0.0430818287
  9
$USRTIMER
 70
     1
  9
$ANGBASE
 50
0.0
  9
$ANGDIR
 70
     0
  9
$PDMODE
 70
     0
  9
$PDSIZE
 40
0.0
  9
$PLINEWID
 40
0.0
  9
$COORDS
 70
     2
  9
$SPLFRAME
 70
     0
  9
$SPLINETYPE
 70
     6
  9
$SPLINESEGS
 70
     8
  9
$ATTDIA
 70
     0
  9
$ATTREQ
 70
     1
  9
$HANDLING
 70
     1
  9
$HANDSEED
  5
187
  9
$SURFTAB1
 70
     6
  9
$SURFTAB2
 70
     6
  9
$SURFTYPE
 70
     6
  9
$SURFU
 70
     6
  9
$SURFV
 70
     6
  9
$UCSNAME
  2

  9
$UCSORG
 10
0.0
 20
0.0
 30
0.0
  9
$UCSXDIR
 10
1.0
 20
0.0
 30
0.0
  9
$UCSYDIR
 10
0.0
 20
1.0
 30
0.0
  9
$USERI1
 70
     0
  9
$USERI2
 70
     0
  9
$USERI3
 70
     0
  9
$USERI4
 70
     0
  9
$USERI5
 70
     0
  9
$USERR1
 40
0.0
  9
$USERR2
 40
0.0
  9
$USERR3
 40
0.0
  9
$USERR4
 40
0.0
  9
$USERR5
 40
0.0
  9
$WORLDVIEW
 70
     1
  0
ENDSEC
  0
SECTION
  2
TABLES
  0
TABLE
  2
VPORT
 70
     1
  0
VPORT
  2
*ACTIVE
 70
     0
 10
0.0
 20
0.0
 11
1.0
 21
1.0
 12
4258.483971000678
 22
1762.681180215449
 13
0.0
 23
0.0
 14
10.0
 24
10.0
 15
10.0
 25
10.0
 16
0.0
 26
0.0
 36
1.0
 17
0.0
 27
0.0
 37
-62.878813720297
 40
9687.913092182762
 41
2.075063613232
 42
50.0
 43
0.0
 44
0.0
 50
0.0
 51
0.0
 71
     0
 72
   100
 73
     1
 74
     3
 75
     0
 76
     0
 77
     0
 78
     0
  0
ENDTAB
  0
TABLE
  2
LTYPE
 70
     1
  0
LTYPE
  2
CONTINUOUS
 70
     0
  3
Solid line
 72
    65
 73
     0
 40
0.0
  0
ENDTAB
  0
TABLE
  2
LAYER
 70
     2
  0
LAYER
  2
0
 70
     0
 62
     7
  6
CONTINUOUS
  0
LAYER
  2
DEFPOINTS
 70
     0
 62
     7
  6
CONTINUOUS
  0
ENDTAB
  0
TABLE
  2
STYLE
 70
     2
  0
STYLE
  2
STANDARD
 70
     0
 40
0.0
 41
1.0
 50
0.0
 71
     0
 42
2.5
  3
arial.ttf
  4

  0
STYLE
  2
DYN_DIM
 70
     0
 40
0.0
 41
1.0
 50
0.0
 71
     0
 42
2.5
  3
arial.ttf
  4

  0
ENDTAB
  0
TABLE
  2
VIEW
 70
     0
  0
ENDTAB
  0
TABLE
  2
UCS
 70
     0
  0
ENDTAB
  0
ENDSEC
  0
SECTION
  2
BLOCKS
  0
ENDSEC
  0
SECTION
  2
ENTITIES
  0
LINE
  5
121
  8
0
 10
-451.328919639389
 20
0.0
 30
0.0
 11
451.328919639389
 21
0.0
 31
0.0
  0
LINE
  5
122
  8
0
 10
451.328919639389
 20
0.0
 30
0.0
 11
451.328919639389
 21
896.988216795333
 31
0.0
  0
LINE
  5
123
  8
0
 10
451.328919639389
 20
896.988216795333
 30
0.0
 11
182.232454600789
 21
1176.051217576104
 31
0.0
  0
LINE
  5
124
  8
0
 10
182.232454600789
 20
1176.051217576104
 30
0.0
 11
456.312187510474
 21
1176.051217576104
 31
0.0
  0
LINE
  5
125
  8
0
 10
456.312187510474
 20
1176.051217576104
 30
0.0
 11
456.312187510474
 21
1644.478397458111
 31
0.0
  0
LINE
  5
126
  8
0
 10
456.312187510474
 20
1644.478397458111
 30
0.0
 11
187.215722471874
 21
1923.541398238881
 31
0.0
  0
LINE
  5
127
  8
0
 10
187.215722471874
 20
1923.541398238881
 30
0.0
 11
461.295455381559
 21
1923.541398238881
 31
0.0
  0
LINE
  5
128
  8
0
 10
461.295455381559
 20
1923.541398238881
 30
0.0
 11
461.295455381559
 21
2391.968578120889
 31
0.0
  0
LINE
  5
129
  8
0
 10
461.295455381559
 20
2391.968578120889
 30
0.0
 11
192.198990342959
 21
2671.031578901659
 31
0.0
  0
LINE
  5
12A
  8
0
 10
192.198990342959
 20
2671.031578901659
 30
0.0
 11
466.278723252644
 21
2671.031578901659
 31
0.0
  0
LINE
  5
12B
  8
0
 10
466.278723252644
 20
2671.031578901659
 30
0.0
 11
466.278723252644
 21
3377.349797014844
 31
0.0
  0
LINE
  5
12C
  8
0
 10
466.278723252644
 20
3377.349797014844
 30
0.0
 11
156.79537405006
 21
3646.595309026996
 31
0.0
  0
LINE
  5
12D
  8
0
 10
156.79537405006
 20
3646.595309026996
 30
0.0
 11
650.526742569187
 21
3646.595309026996
 31
0.0
  0
LINE
  5
12E
  8
0
 10
650.526742569187
 20
3646.595309026996
 30
0.0
 11
650.526742569187
 21
4701.007541265146
 31
0.0
  0
LINE
  5
12F
  8
0
 10
650.526742569187
 20
4701.007541265146
 30
0.0
 11
-650.526742569187
 21
4701.007541265146
 31
0.0
  0
LINE
  5
130
  8
0
 10
-650.526742569187
 20
4701.007541265146
 30
0.0
 11
-650.526742569187
 21
3646.595309026996
 31
0.0
  0
LINE
  5
131
  8
0
 10
-650.526742569187
 20
3646.595309026996
 30
0.0
 11
-156.79537405006
 21
3646.595309026996
 31
0.0
  0
LINE
  5
132
  8
0
 10
-156.79537405006
 20
3646.595309026996
 30
0.0
 11
-466.278723252643
 21
3377.349797014844
 31
0.0
  0
LINE
  5
133
  8
0
 10
-466.278723252643
 20
3377.349797014844
 30
0.0
 11
-466.278723252643
 21
2671.031578901659
 31
0.0
  0
LINE
  5
134
  8
0
 10
-466.278723252643
 20
2671.031578901659
 30
0.0
 11
-192.198990342959
 21
2671.031578901659
 31
0.0
  0
LINE
  5
135
  8
0
 10
-192.198990342959
 20
2671.031578901659
 30
0.0
 11
-461.295455381559
 21
2391.968578120889
 31
0.0
  0
LINE
  5
136
  8
0
 10
-461.295455381559
 20
2391.968578120889
 30
0.0
 11
-461.295455381559
 21
1923.541398238881
 31
0.0
  0
LINE
  5
137
  8
0
 10
-461.295455381559
 20
1923.541398238881
 30
0.0
 11
-187.215722471874
 21
1923.541398238881
 31
0.0
  0
LINE
  5
138
  8
0
 10
-187.215722471874
 20
1923.541398238881
 30
0.0
 11
-456.312187510474
 21
1644.478397458111
 31
0.0
  0
LINE
  5
139
  8
0
 10
-456.312187510474
 20
1644.478397458111
 30
0.0
 11
-456.312187510474
 21
1176.051217576104
 31
0.0
  0
LINE
  5
13A
  8
0
 10
-456.312187510474
 20
1176.051217576104
 30
0.0
 11
-182.232454600789
 21
1176.051217576104
 31
0.0
  0
LINE
  5
13B
  8
0
 10
-182.232454600789
 20
1176.051217576104
 30
0.0
 11
-451.328919639389
 21
896.988216795333
 31
0.0
  0
LINE
  5
13C
  8
0
 10
-451.328919639389
 20
896.988216795333
 30
0.0
 11
-451.328919639389
 21
0.0
 31
0.0
  0
LINE
  5
13D
  8
0
 10
0.0
 20
2851.766724784705
 30
0.0
 11
327.869186373647
 21
3227.203675887975
 31
0.0
  0
LINE
  5
13E
  8
0
 10
327.869186373647
 20
3227.203675887975
 30
0.0
 11
-327.869186373647
 21
3227.203675887975
 31
0.0
  0
LINE
  5
13F
  8
0
 10
-327.869186373647
 20
3227.203675887975
 30
0.0
 11
0.0
 21
2851.766724784705
 31
0.0
  0
LINE
  5
140
  8
0
 10
0.0
 20
1938.307008565953
 30
0.0
 11
327.869186373647
 21
2313.743959669223
 31
0.0
  0
LINE
  5
141
  8
0
 10
327.869186373647
 20
2313.743959669223
 30
0.0
 11
-327.869186373647
 21
2313.743959669223
 31
0.0
  0
LINE
  5
142
  8
0
 10
-327.869186373647
 20
2313.743959669223
 30
0.0
 11
0.0
 21
1938.307008565953
 31
0.0
  0
LINE
  5
143
  8
0
 10
0.0
 20
1193.116187440129
 30
0.0
 11
327.869186373647
 21
1568.553138543399
 31
0.0
  0
LINE
  5
144
  8
0
 10
327.869186373647
 20
1568.553138543399
 30
0.0
 11
-327.869186373647
 21
1568.553138543399
 31
0.0
  0
LINE
  5
145
  8
0
 10
-327.869186373647
 20
1568.553138543399
 30
0.0
 11
0.0
 21
1193.116187440129
 31
0.0
  0
ENDSEC
  0
EOF
