  0
SECTION
  2
HEADER
  9
$ACADVER
  1
AC1006
  9
$DWGCODEPAGE
  3
ansi_1252
  9
$INSBASE
 10
0.0
 20
0.0
 30
0.0
  9
$EXTMIN
 10
-3755.583372064263
 20
-214.242768474881
  9
$EXTMAX
 10
450.0
 20
4834.857318551076
  9
$LIMMIN
 10
0.0
 20
0.0
  9
$LIMMAX
 10
420.0
 20
297.0
  9
$ORTHOMODE
 70
     0
  9
$REGENMODE
 70
     1
  9
$FILLMODE
 70
     1
  9
$QTEXTMODE
 70
     0
  9
$MIRRTEXT
 70
     1
  9
$DRAGMODE
 70
     2
  9
$LTSCALE
 40
1.0
  9
$OSMODE
 70
 16383
  9
$ATTMODE
 70
     1
  9
$TEXTSIZE
 40
2.5
  9
$TRACEWID
 40
1.0
  9
$TEXTSTYLE
  7
STANDARD
  9
$CLAYER
  8
0
  9
$CELTYPE
  6
BYLAYER
  9
$CECOLOR
 62
   256
  9
$DIMSCALE
 40
1.0
  9
$DIMASZ
 40
2.5
  9
$DIMEXO
 40
0.625
  9
$DIMDLI
 40
3.75
  9
$DIMRND
 40
0.0
  9
$DIMDLE
 40
0.0
  9
$DIMEXE
 40
1.25
  9
$DIMTP
 40
0.0
  9
$DIMTM
 40
0.0
  9
$DIMTXT
 40
2.5
  9
$DIMCEN
 40
2.5
  9
$DIMTSZ
 40
0.0
  9
$DIMTOL
 70
     0
  9
$DIMLIM
 70
     0
  9
$DIMTIH
 70
     0
  9
$DIMTOH
 70
     0
  9
$DIMSE1
 70
     0
  9
$DIMSE2
 70
     0
  9
$DIMTAD
 70
     1
  9
$DIMZIN
 70
     8
  9
$DIMBLK
  1

  9
$DIMASO
 70
     1
  9
$DIMSHO
 70
     1
  9
$DIMPOST
  1

  9
$DIMAPOST
  1

  9
$DIMALT
 70
     0
  9
$DIMALTD
 70
     3
  9
$DIMALTF
 40
0.03937007874
  9
$DIMLFAC
 40
1.0
  9
$DIMTOFL
 70
     1
  9
$DIMTVP
 40
0.0
  9
$DIMTIX
 70
     0
  9
$DIMSOXD
 70
     0
  9
$DIMSAH
 70
     0
  9
$DIMBLK1
  1

  9
$DIMBLK2
  1

  9
$LUNITS
 70
     2
  9
$LUPREC
 70
     2
  9
$SKETCHINC
 40
1.0
  9
$FILLETRAD
 40
0.0
  9
$AUNITS
 70
     0
  9
$AUPREC
 70
     2
  9
$MENU
  1
.
  9
$ELEVATION
 40
0.0
  9
$THICKNESS
 40
0.0
  9
$LIMCHECK
 70
     0
  9
$CHAMFERA
 40
0.0
  9
$CHAMFERB
 40
0.0
  9
$SKPOLY
 70
     0
  9
$TDCREATE
 40
2460882.561239873
  9
$TDUPDATE
 40
2460885.607233959
  9
$TDINDWG
 40
0.0
  9
$TDUSRTIMER
 40
0.0
  9
$USRTIMER
 70
     1
  9
$ANGBASE
 50
0.0
  9
$ANGDIR
 70
     0
  9
$PDMODE
 70
     0
  9
$PDSIZE
 40
0.0
  9
$PLINEWID
 40
0.0
  9
$COORDS
 70
     1
  9
$SPLFRAME
 70
     0
  9
$SPLINETYPE
 70
     6
  9
$SPLINESEGS
 70
     8
  9
$ATTDIA
 70
     0
  9
$ATTREQ
 70
     1
  9
$HANDLING
 70
     1
  9
$HANDSEED
  5
491
  9
$SURFTAB1
 70
     6
  9
$SURFTAB2
 70
     6
  9
$SURFTYPE
 70
     6
  9
$SURFU
 70
     6
  9
$SURFV
 70
     6
  9
$UCSNAME
  2

  9
$UCSORG
 10
0.0
 20
0.0
 30
0.0
  9
$UCSXDIR
 10
1.0
 20
0.0
 30
0.0
  9
$UCSYDIR
 10
0.0
 20
1.0
 30
0.0
  9
$USERI1
 70
     0
  9
$USERI2
 70
     0
  9
$USERI3
 70
     0
  9
$USERI4
 70
     0
  9
$USERI5
 70
     0
  9
$USERR1
 40
0.0
  9
$USERR2
 40
0.0
  9
$USERR3
 40
0.0
  9
$USERR4
 40
0.0
  9
$USERR5
 40
0.0
  9
$WORLDVIEW
 70
     1
  0
ENDSEC
  0
SECTION
  2
TABLES
  0
TABLE
  2
VPORT
 70
     1
  0
VPORT
  2
*ACTIVE
 70
     0
 10
0.0
 20
0.0
 11
1.0
 21
1.0
 12
-2440.994189949707
 22
1132.41250389404
 13
0.0
 23
0.0
 14
10.0
 24
10.0
 15
10.0
 25
10.0
 16
0.0
 26
0.0
 36
1.0
 17
0.0
 27
0.0
 37
0.0
 40
10297.17952579054
 41
1.795165394402
 42
50.0
 43
0.0
 44
0.0
 50
0.0
 51
0.0
 71
     0
 72
   100
 73
     1
 74
     3
 75
     0
 76
     0
 77
     0
 78
     0
  0
ENDTAB
  0
TABLE
  2
LTYPE
 70
     1
  0
LTYPE
  2
CONTINUOUS
 70
     0
  3
Solid line
 72
    65
 73
     0
 40
0.0
  0
ENDTAB
  0
TABLE
  2
LAYER
 70
     2
  0
LAYER
  2
0
 70
     0
 62
     7
  6
CONTINUOUS
  0
LAYER
  2
DEFPOINTS
 70
     0
 62
     7
  6
CONTINUOUS
  0
ENDTAB
  0
TABLE
  2
STYLE
 70
     1
  0
STYLE
  2
STANDARD
 70
     0
 40
0.0
 41
1.0
 50
0.0
 71
     0
 42
2.5
  3
arial.ttf
  4

  0
ENDTAB
  0
TABLE
  2
VIEW
 70
     0
  0
ENDTAB
  0
TABLE
  2
UCS
 70
     0
  0
ENDTAB
  0
ENDSEC
  0
SECTION
  2
BLOCKS
  0
BLOCK
  8
0
  2
*D0
 70
     1
 10
0.0
 20
0.0
 30
0.0
  0
LINE
  5
E0
  8
0
 62
     5
 10
1536.281660466086
 20
2649.586943202983
 30
0.0
 11
2084.512612774905
 21
2649.586943202983
 31
0.0
  0
LINE
  5
E1
  8
0
 62
     5
 10
1231.281660466086
 20
3499.99766749566
 30
0.0
 11
2084.512612774905
 21
3499.99766749566
 31
0.0
  0
LINE
  5
E2
  8
0
 62
     5
 10
2064.512612774905
 20
2736.386943202984
 30
0.0
 11
2064.512612774905
 21
3413.19766749566
 31
0.0
  0
SOLID
  5
E3
  8
0
 62
     5
 10
2050.045946108238
 20
2736.386943202984
 30
0.0
 11
2078.979279441572
 21
2736.386943202984
 31
0.0
 12
2064.512612774905
 22
2649.586943202983
 32
0.0
 13
2064.512612774905
 23
2649.586943202983
 33
0.0
  0
SOLID
  5
E4
  8
0
 62
     5
 10
2078.979279441572
 20
3413.19766749566
 30
0.0
 11
2050.045946108238
 21
3413.19766749566
 31
0.0
 12
2064.512612774905
 22
3499.99766749566
 32
0.0
 13
2064.512612774905
 23
3499.99766749566
 33
0.0
  0
TEXT
  5
E5
  8
0
 62
     5
 10
2043.032394493868
 20
2974.078253507575
 30
0.0
 40
86.8
  1
850
 50
90.0
  0
POINT
  5
E6
  8
DEFPOINTS
 62
     0
 10
1516.281660466086
 20
2649.586943202983
 30
0.0
  0
POINT
  5
E7
  8
DEFPOINTS
 62
     0
 10
1211.281660466086
 20
3499.99766749566
 30
0.0
  0
POINT
  5
E8
  8
DEFPOINTS
 62
     0
 10
2064.512612774905
 20
3499.99766749566
 30
0.0
  0
ENDBLK
  8
0
  0
BLOCK
  8
0
  2
*D1
 70
     1
 10
0.0
 20
0.0
 30
0.0
  0
LINE
  5
F0
  8
0
 62
     5
 10
1536.281660466086
 20
3099.997104717091
 30
0.0
 11
1854.555116894475
 21
3099.997104717091
 31
0.0
  0
LINE
  5
F1
  8
0
 62
     5
 10
1536.281660466086
 20
2649.586943202983
 30
0.0
 11
1854.555116894475
 21
2649.586943202983
 31
0.0
  0
LINE
  5
F2
  8
0
 62
     5
 10
1834.555116894475
 20
3013.197104717091
 30
0.0
 11
1834.555116894475
 21
2736.386943202984
 31
0.0
  0
SOLID
  5
F3
  8
0
 62
     5
 10
1849.021783561142
 20
3013.197104717091
 30
0.0
 11
1820.088450227809
 21
3013.197104717091
 31
0.0
 12
1834.555116894475
 22
3099.997104717091
 32
0.0
 13
1834.555116894475
 23
3099.997104717091
 33
0.0
  0
SOLID
  5
F4
  8
0
 62
     5
 10
1820.088450227809
 20
2736.386943202984
 30
0.0
 11
1849.021783561142
 21
2736.386943202984
 31
0.0
 12
1834.555116894475
 22
2649.586943202983
 32
0.0
 13
1834.555116894475
 23
2649.586943202983
 33
0.0
  0
TEXT
  5
F5
  8
0
 62
     5
 10
1813.074898613438
 20
2775.765420958673
 30
0.0
 40
86.8
  1
450
 50
90.0
  0
POINT
  5
F6
  8
DEFPOINTS
 62
     0
 10
1516.281660466086
 20
3099.997104717091
 30
0.0
  0
POINT
  5
F7
  8
DEFPOINTS
 62
     0
 10
1516.281660466086
 20
2649.586943202983
 30
0.0
  0
POINT
  5
F8
  8
DEFPOINTS
 62
     0
 10
1834.555116894475
 20
2649.586943202983
 30
0.0
  0
ENDBLK
  8
0
  0
BLOCK
  8
0
  2
*D2
 70
     1
 10
0.0
 20
0.0
 30
0.0
  0
LINE
  5
100
  8
0
 62
     5
 10
1536.281660466086
 20
3099.997104717091
 30
0.0
 11
1854.555116894475
 21
3099.997104717091
 31
0.0
  0
LINE
  5
101
  8
0
 62
     5
 10
1231.281660466086
 20
3499.99766749566
 30
0.0
 11
1854.555116894475
 21
3499.99766749566
 31
0.0
  0
LINE
  5
102
  8
0
 62
     5
 10
1834.555116894475
 20
3186.797104717092
 30
0.0
 11
1834.555116894475
 21
3413.19766749566
 31
0.0
  0
SOLID
  5
103
  8
0
 62
     5
 10
1820.088450227809
 20
3186.797104717092
 30
0.0
 11
1849.021783561142
 21
3186.797104717092
 31
0.0
 12
1834.555116894475
 22
3099.997104717091
 32
0.0
 13
1834.555116894475
 23
3099.997104717091
 33
0.0
  0
SOLID
  5
104
  8
0
 62
     5
 10
1849.021783561142
 20
3413.19766749566
 30
0.0
 11
1820.088450227809
 21
3413.19766749566
 31
0.0
 12
1834.555116894475
 22
3499.99766749566
 32
0.0
 13
1834.555116894475
 23
3499.99766749566
 33
0.0
  0
TEXT
  5
105
  8
0
 62
     5
 10
1813.074898613438
 20
3200.970783105011
 30
0.0
 40
86.8
  1
400
 50
90.0
  0
POINT
  5
106
  8
DEFPOINTS
 62
     0
 10
1516.281660466086
 20
3099.997104717091
 30
0.0
  0
POINT
  5
107
  8
DEFPOINTS
 62
     0
 10
1211.281660466086
 20
3499.99766749566
 30
0.0
  0
POINT
  5
108
  8
DEFPOINTS
 62
     0
 10
1834.555116894475
 20
3499.99766749566
 30
0.0
  0
ENDBLK
  8
0
  0
BLOCK
  8
0
  2
*D3
 70
     1
 10
0.0
 20
0.0
 30
0.0
  0
LINE
  5
117
  8
0
 62
     5
 10
861.281660466086
 20
3580.831362488
 30
0.0
 11
861.281660466086
 21
3684.518101011883
 31
0.0
  0
LINE
  5
118
  8
0
 62
     5
 10
1211.281660466086
 20
3580.831362488
 30
0.0
 11
1211.281660466086
 21
3684.518101011883
 31
0.0
  0
LINE
  5
119
  8
0
 62
     5
 10
948.081660466086
 20
3664.518101011883
 30
0.0
 11
1124.481660466086
 21
3664.518101011883
 31
0.0
  0
SOLID
  5
11A
  8
0
 62
     5
 10
948.081660466086
 20
3678.98476767855
 30
0.0
 11
948.081660466086
 21
3650.051434345217
 31
0.0
 12
861.281660466086
 22
3664.518101011883
 32
0.0
 13
861.281660466086
 23
3664.518101011883
 33
0.0
  0
SOLID
  5
11B
  8
0
 62
     5
 10
1124.481660466086
 20
3650.051434345217
 30
0.0
 11
1124.481660466086
 21
3678.98476767855
 31
0.0
 12
1211.281660466086
 22
3664.518101011883
 32
0.0
 13
1211.281660466086
 23
3664.518101011883
 33
0.0
  0
TEXT
  5
11C
  8
0
 62
     5
 10
935.478795527478
 20
3686.057528024161
 30
0.0
 40
86.8
  1
350
  0
POINT
  5
11D
  8
DEFPOINTS
 62
     0
 10
861.281660466086
 20
3560.831362488
 30
0.0
  0
POINT
  5
11E
  8
DEFPOINTS
 62
     0
 10
1211.281660466086
 20
3560.831362488
 30
0.0
  0
POINT
  5
11F
  8
DEFPOINTS
 62
     0
 10
1211.281660466086
 20
3664.518101011883
 30
0.0
  0
ENDBLK
  8
0
  0
BLOCK
  8
0
  2
*D4
 70
     1
 10
0.0
 20
0.0
 30
0.0
  0
LINE
  5
129
  8
0
 62
     5
 10
761.281660466086
 20
3119.997104717091
 30
0.0
 11
761.281660466086
 21
3258.256669654196
 31
0.0
  0
LINE
  5
12A
  8
0
 62
     5
 10
1311.281660466086
 20
3119.997104717091
 30
0.0
 11
1311.281660466086
 21
3258.256669654196
 31
0.0
  0
LINE
  5
12B
  8
0
 62
     5
 10
848.081660466086
 20
3238.256669654196
 30
0.0
 11
1224.481660466086
 21
3238.256669654196
 31
0.0
  0
SOLID
  5
12C
  8
0
 62
     5
 10
848.081660466086
 20
3252.723336320863
 30
0.0
 11
848.081660466086
 21
3223.79000298753
 31
0.0
 12
761.281660466086
 22
3238.256669654196
 32
0.0
 13
761.281660466086
 23
3238.256669654196
 33
0.0
  0
SOLID
  5
12D
  8
0
 62
     5
 10
1224.481660466086
 20
3223.79000298753
 30
0.0
 11
1224.481660466086
 21
3252.723336320863
 31
0.0
 12
1311.281660466086
 22
3238.256669654196
 32
0.0
 13
1311.281660466086
 23
3238.256669654196
 33
0.0
  0
TEXT
  5
12E
  8
0
 62
     5
 10
935.508399893098
 20
3259.736887935234
 30
0.0
 40
86.8
  1
550
  0
POINT
  5
12F
  8
DEFPOINTS
 62
     0
 10
761.281660466086
 20
3099.997104717091
 30
0.0
  0
POINT
  5
130
  8
DEFPOINTS
 62
     0
 10
1311.281660466086
 20
3099.997104717091
 30
0.0
  0
POINT
  5
131
  8
DEFPOINTS
 62
     0
 10
1311.281660466086
 20
3238.256669654196
 30
0.0
  0
ENDBLK
  8
0
  0
BLOCK
  8
0
  2
*D5
 70
     1
 10
0.0
 20
0.0
 30
0.0
  0
ARC
  5
13B
  8
0
 62
     5
 10
1036.281660466086
 20
2758.818916155877
 30
0.0
 40
151.1451825617041
 50
9.776148951974
 51
30.453138981778
  0
ARC
  5
13C
  8
0
 62
     5
 10
1036.281660466086
 20
2758.818916155877
 30
0.0
 40
151.1451825617041
 50
149.546861018222
 51
170.223851048026
  0
ARC
  5
13D
  8
0
 62
     5
 10
1036.281660466086
 20
2758.818916155877
 30
0.0
 40
151.1451825617041
 50
51.130129011581
 51
128.869870988419
  0
SOLID
  5
13E
  8
0
 62
     5
 10
1173.420814320524
 20
2841.33136758733
 30
0.0
 11
1159.730095235115
 21
2829.517343913371
 31
0.0
 12
1131.133383755941
 22
2876.496513006576
 32
0.0
 13
1131.133383755941
 23
2876.496513006576
 33
0.0
  0
SOLID
  5
13F
  8
0
 62
     5
 10
912.833225697057
 20
2829.517343913371
 30
0.0
 11
899.142506611648
 21
2841.33136758733
 31
0.0
 12
941.429937176231
 22
2876.496513006576
 32
0.0
 13
941.429937176231
 23
2876.496513006576
 33
0.0
  0
TEXT
  5
140
  8
0
 62
     5
 10
979.700316673451
 20
2923.389235143229
 30
0.0
 40
54.25
  1
78°
 50
0.000000000001
  0
POINT
  5
141
  8
DEFPOINTS
 62
     0
 10
1070.170425682381
 20
2906.115955514194
 30
0.0
  0
POINT
  5
142
  8
DEFPOINTS
 62
     0
 10
1072.366052290405
 20
2803.586943202983
 30
0.0
  0
POINT
  5
143
  8
DEFPOINTS
 62
     0
 10
1000.197268641767
 20
2803.586943202983
 30
0.0
  0
POINT
  5
144
  8
DEFPOINTS
 62
     0
 10
761.281660466086
 20
3099.997104717091
 30
0.0
  0
POINT
  5
145
  8
DEFPOINTS
 62
     0
 10
1311.281660466086
 20
3099.997104717091
 30
0.0
  0
ENDBLK
  8
0
  0
BLOCK
  8
0
  2
*D6
 70
     1
 10
0.0
 20
0.0
 30
0.0
  0
LINE
  5
15E
  8
0
 62
     5
 10
586.281660466072
 20
3089.997104717091
 30
0.0
 11
586.281660466072
 21
3019.61185188096
 31
0.0
  0
LINE
  5
15F
  8
0
 62
     5
 10
761.281660466072
 20
3089.997104717091
 30
0.0
 11
761.281660466072
 21
3019.61185188096
 31
0.0
  0
LINE
  5
160
  8
0
 62
     5
 10
629.681660466072
 20
3029.61185188096
 30
0.0
 11
717.881660466072
 21
3029.61185188096
 31
0.0
  0
SOLID
  5
161
  8
0
 62
     5
 10
629.681660466072
 20
3036.845185214293
 30
0.0
 11
629.681660466072
 21
3022.378518547627
 31
0.0
 12
586.281660466072
 22
3029.61185188096
 32
0.0
 13
586.281660466072
 23
3029.61185188096
 33
0.0
  0
SOLID
  5
162
  8
0
 62
     5
 10
717.881660466072
 20
3022.378518547627
 30
0.0
 11
717.881660466072
 21
3036.845185214293
 31
0.0
 12
761.281660466072
 22
3029.61185188096
 32
0.0
 13
761.281660466072
 23
3029.61185188096
 33
0.0
  0
TEXT
  5
163
  8
0
 62
     5
 10
621.352328951747
 20
3040.351961021478
 30
0.0
 40
43.4
  1
180
  0
POINT
  5
164
  8
DEFPOINTS
 62
     0
 10
586.281660466072
 20
3099.997104717091
 30
0.0
  0
POINT
  5
165
  8
DEFPOINTS
 62
     0
 10
761.281660466072
 20
3099.997104717091
 30
0.0
  0
POINT
  5
166
  8
DEFPOINTS
 62
     0
 10
761.281660466072
 20
3029.61185188096
 30
0.0
  0
ENDBLK
  8
0
  0
BLOCK
  8
0
  2
*D7
 70
     1
 10
0.0
 20
0.0
 30
0.0
  0
LINE
  5
178
  8
0
 62
     5
 10
1536.281660466086
 20
2649.586943202983
 30
0.0
 11
1854.7574146551
 21
2649.586943202983
 31
0.0
  0
LINE
  5
179
  8
0
 62
     5
 10
1536.281660466086
 20
1999.99766749566
 30
0.0
 11
1854.7574146551
 21
1999.99766749566
 31
0.0
  0
LINE
  5
17A
  8
0
 62
     5
 10
1834.7574146551
 20
2562.786943202983
 30
0.0
 11
1834.7574146551
 21
2086.79766749566
 31
0.0
  0
SOLID
  5
17B
  8
0
 62
     5
 10
1849.224081321767
 20
2562.786943202983
 30
0.0
 11
1820.290747988434
 21
2562.786943202983
 31
0.0
 12
1834.7574146551
 22
2649.586943202983
 32
0.0
 13
1834.7574146551
 23
2649.586943202983
 33
0.0
  0
SOLID
  5
17C
  8
0
 62
     5
 10
1820.290747988434
 20
2086.79766749566
 30
0.0
 11
1849.224081321767
 21
2086.79766749566
 31
0.0
 12
1834.7574146551
 22
1999.99766749566
 32
0.0
 13
1834.7574146551
 23
1999.99766749566
 33
0.0
  0
TEXT
  5
17D
  8
0
 62
     5
 10
1813.277196374063
 20
2224.2558797013
 30
0.0
 40
86.8
  1
650
 50
90.0
  0
POINT
  5
17E
  8
DEFPOINTS
 62
     0
 10
1516.281660466086
 20
2649.586943202983
 30
0.0
  0
POINT
  5
17F
  8
DEFPOINTS
 62
     0
 10
1516.281660466086
 20
1999.99766749566
 30
0.0
  0
POINT
  5
180
  8
DEFPOINTS
 62
     0
 10
1834.7574146551
 20
1999.99766749566
 30
0.0
  0
ENDBLK
  8
0
  0
BLOCK
  8
0
  2
*D8
 70
     1
 10
0.0
 20
0.0
 30
0.0
  0
LINE
  5
18C
  8
0
 62
     5
 10
1536.281660466086
 20
1999.99766749566
 30
0.0
 11
1854.7574146551
 21
1999.99766749566
 31
0.0
  0
LINE
  5
18D
  8
0
 62
     5
 10
1536.281660466086
 20
1000.0
 30
0.0
 11
1854.7574146551
 21
1000.0
 31
0.0
  0
LINE
  5
18E
  8
0
 62
     5
 10
1834.7574146551
 20
1913.19766749566
 30
0.0
 11
1834.7574146551
 21
1086.8
 31
0.0
  0
SOLID
  5
18F
  8
0
 62
     5
 10
1849.224081321767
 20
1913.19766749566
 30
0.0
 11
1820.290747988434
 21
1913.19766749566
 31
0.0
 12
1834.7574146551
 22
1999.99766749566
 32
0.0
 13
1834.7574146551
 23
1999.99766749566
 33
0.0
  0
SOLID
  5
190
  8
0
 62
     5
 10
1820.290747988434
 20
1086.8
 30
0.0
 11
1849.224081321767
 21
1086.8
 31
0.0
 12
1834.7574146551
 22
1000.0
 32
0.0
 13
1834.7574146551
 23
1000.0
 33
0.0
  0
TEXT
  5
191
  8
0
 62
     5
 10
1813.277196374063
 20
1361.420798277161
 30
0.0
 40
86.8
  1
1000
 50
90.0
  0
POINT
  5
192
  8
DEFPOINTS
 62
     0
 10
1516.281660466086
 20
1999.99766749566
 30
0.0
  0
POINT
  5
193
  8
DEFPOINTS
 62
     0
 10
1516.281660466086
 20
1000.0
 30
0.0
  0
POINT
  5
194
  8
DEFPOINTS
 62
     0
 10
1834.7574146551
 20
1000.0
 30
0.0
  0
ENDBLK
  8
0
  0
BLOCK
  8
0
  2
*D9
 70
     1
 10
0.0
 20
0.0
 30
0.0
  0
LINE
  5
19E
  8
0
 62
     5
 10
1536.281660466086
 20
1000.0
 30
0.0
 11
1854.7574146551
 21
1000.0
 31
0.0
  0
LINE
  5
19F
  8
0
 62
     5
 10
1544.781660466086
 20
0.0
 30
0.0
 11
1854.7574146551
 21
0.0
 31
0.0
  0
LINE
  5
1A0
  8
0
 62
     5
 10
1834.7574146551
 20
913.2
 30
0.0
 11
1834.7574146551
 21
86.8
 31
0.0
  0
SOLID
  5
1A1
  8
0
 62
     5
 10
1849.224081321767
 20
913.2
 30
0.0
 11
1820.290747988434
 21
913.2
 31
0.0
 12
1834.7574146551
 22
1000.0
 32
0.0
 13
1834.7574146551
 23
1000.0
 33
0.0
  0
SOLID
  5
1A2
  8
0
 62
     5
 10
1820.290747988434
 20
86.8
 30
0.0
 11
1849.224081321767
 21
86.8
 31
0.0
 12
1834.7574146551
 22
0.0
 32
0.0
 13
1834.7574146551
 23
0.0
 33
0.0
  0
TEXT
  5
1A3
  8
0
 62
     5
 10
1813.277196374063
 20
361.421964529332
 30
0.0
 40
86.8
  1
1000
 50
90.0
  0
POINT
  5
1A4
  8
DEFPOINTS
 62
     0
 10
1516.281660466086
 20
1000.0
 30
0.0
  0
POINT
  5
1A5
  8
DEFPOINTS
 62
     0
 10
1524.781660466086
 20
0.0
 30
0.0
  0
POINT
  5
1A6
  8
DEFPOINTS
 62
     0
 10
1834.7574146551
 20
0.0
 30
0.0
  0
ENDBLK
  8
0
  0
BLOCK
  8
0
  2
*D10
 70
     1
 10
0.0
 20
0.0
 30
0.0
  0
LINE
  5
1B0
  8
0
 62
     5
 10
1231.281660466086
 20
3499.99766749566
 30
0.0
 11
2345.084355932454
 21
3499.99766749566
 31
0.0
  0
LINE
  5
1B1
  8
0
 62
     5
 10
1801.865859091161
 20
0.00074680023
 30
0.0
 11
2345.084355932454
 21
0.00074680023
 31
0.0
  0
LINE
  5
1B2
  8
0
 62
     5
 10
2325.084355932454
 20
3413.19766749566
 30
0.0
 11
2325.084355932454
 21
86.80074680023
 31
0.0
  0
SOLID
  5
1B3
  8
0
 62
     5
 10
2339.551022599121
 20
3413.19766749566
 30
0.0
 11
2310.617689265787
 21
3413.19766749566
 31
0.0
 12
2325.084355932454
 22
3499.99766749566
 32
0.0
 13
2325.084355932454
 23
3499.99766749566
 33
0.0
  0
SOLID
  5
1B4
  8
0
 62
     5
 10
2310.617689265787
 20
86.80074680023
 30
0.0
 11
2339.55102259912
 21
86.80074680023
 31
0.0
 12
2325.084355932454
 22
0.00074680023
 32
0.0
 13
2325.084355932454
 23
0.00074680023
 33
0.0
  0
TEXT
  5
1B5
  8
0
 62
     5
 10
2303.544928920176
 20
1615.476969767317
 30
0.0
 40
86.8
  1
3500
 50
90.0
  0
POINT
  5
1B6
  8
DEFPOINTS
 62
     0
 10
1211.281660466086
 20
3499.99766749566
 30
0.0
  0
POINT
  5
1B7
  8
DEFPOINTS
 62
     0
 10
1781.865859091161
 20
0.00074680023
 30
0.0
  0
POINT
  5
1B8
  8
DEFPOINTS
 62
     0
 10
2325.084355932454
 20
0.00074680023
 30
0.0
  0
ENDBLK
  8
0
  0
BLOCK
  8
0
  2
*D11
 70
     1
 10
0.0
 20
0.0
 30
0.0
  0
LINE
  5
1C4
  8
0
 62
     5
 10
1000.197268641767
 20
2813.586943202983
 30
0.0
 11
1000.197268641767
 21
2860.352177747542
 31
0.0
  0
LINE
  5
1C5
  8
0
 62
     5
 10
1072.366052290405
 20
2813.586943202983
 30
0.0
 11
1072.366052290405
 21
2860.352177747542
 31
0.0
  0
LINE
  5
1C6
  8
0
 62
     5
 10
1115.766052290405
 20
2850.352177747542
 30
0.0
 11
1240.8319458784
 21
2850.352177747542
 31
0.0
  0
LINE
  5
1C7
  8
0
 62
     5
 10
1000.197268641767
 20
2850.352177747542
 30
0.0
 11
1072.366052290405
 21
2850.352177747542
 31
0.0
  0
LINE
  5
1C8
  8
0
 62
     5
 10
956.797268641767
 20
2850.352177747542
 30
0.0
 11
913.397268641767
 21
2850.352177747542
 31
0.0
  0
SOLID
  5
1C9
  8
0
 62
     5
 10
956.797268641767
 20
2843.118844414209
 30
0.0
 11
956.797268641767
 21
2857.585511080875
 31
0.0
 12
1000.197268641767
 22
2850.352177747542
 32
0.0
 13
1000.197268641767
 23
2850.352177747542
 33
0.0
  0
SOLID
  5
1CA
  8
0
 62
     5
 10
1115.766052290405
 20
2857.585511080875
 30
0.0
 11
1115.766052290405
 21
2843.118844414209
 31
0.0
 12
1072.366052290405
 22
2850.352177747542
 32
0.0
 13
1072.366052290405
 23
2850.352177747542
 33
0.0
  0
TEXT
  5
1CB
  8
0
 62
     5
 10
1166.294428825194
 20
2861.09228688806
 30
0.0
 40
43.4
  1
70
  0
POINT
  5
1CC
  8
DEFPOINTS
 62
     0
 10
1000.197268641767
 20
2803.586943202983
 30
0.0
  0
POINT
  5
1CD
  8
DEFPOINTS
 62
     0
 10
1072.366052290405
 20
2803.586943202983
 30
0.0
  0
POINT
  5
1CE
  8
DEFPOINTS
 62
     0
 10
1072.366052290405
 20
2850.352177747542
 30
0.0
  0
ENDBLK
  8
0
  0
BLOCK
  8
0
  2
*D12
 70
     1
 10
0.0
 20
0.0
 30
0.0
  0
LINE
  5
1DE
  8
0
 62
     5
 10
861.281660466086
 20
2475.611446017024
 30
0.0
 11
861.281660466086
 21
2365.569570664907
 31
0.0
  0
LINE
  5
1DF
  8
0
 62
     5
 10
1211.281660466086
 20
2475.611446017024
 30
0.0
 11
1211.281660466086
 21
2365.569570664907
 31
0.0
  0
LINE
  5
1E0
  8
0
 62
     5
 10
904.681660466086
 20
2375.569570664907
 30
0.0
 11
1167.881660466086
 21
2375.569570664907
 31
0.0
  0
SOLID
  5
1E1
  8
0
 62
     5
 10
904.681660466086
 20
2382.80290399824
 30
0.0
 11
904.681660466086
 21
2368.336237331574
 31
0.0
 12
861.281660466086
 22
2375.569570664907
 32
0.0
 13
861.281660466086
 23
2375.569570664907
 33
0.0
  0
SOLID
  5
1E2
  8
0
 62
     5
 10
1167.881660466086
 20
2368.336237331574
 30
0.0
 11
1167.881660466086
 21
2382.80290399824
 31
0.0
 12
1211.281660466086
 22
2375.569570664907
 32
0.0
 13
1211.281660466086
 23
2375.569570664907
 33
0.0
  0
TEXT
  5
1E3
  8
0
 62
     5
 10
985.880227996782
 20
2386.339284171046
 30
0.0
 40
43.4
  1
350
  0
POINT
  5
1E4
  8
DEFPOINTS
 62
     0
 10
861.281660466086
 20
2485.611446017024
 30
0.0
  0
POINT
  5
1E5
  8
DEFPOINTS
 62
     0
 10
1211.281660466086
 20
2485.611446017024
 30
0.0
  0
POINT
  5
1E6
  8
DEFPOINTS
 62
     0
 10
1211.281660466086
 20
2375.569570664907
 30
0.0
  0
ENDBLK
  8
0
  0
BLOCK
  8
0
  2
*D13
 70
     1
 10
0.0
 20
0.0
 30
0.0
  0
LINE
  5
1F0
  8
0
 62
     5
 10
851.281660466086
 20
2485.611446017024
 30
0.0
 11
465.236721577426
 21
2485.611446017024
 31
0.0
  0
LINE
  5
1F1
  8
0
 62
     5
 10
607.863607604862
 20
2224.489763891481
 30
0.0
 11
465.236721577426
 21
2224.489763891481
 31
0.0
  0
LINE
  5
1F2
  8
0
 62
     5
 10
475.236721577426
 20
2442.211446017024
 30
0.0
 11
475.236721577426
 21
2267.889763891481
 31
0.0
  0
SOLID
  5
1F3
  8
0
 62
     5
 10
482.470054910759
 20
2442.211446017024
 30
0.0
 11
468.003388244092
 21
2442.211446017024
 31
0.0
 12
475.236721577426
 22
2485.611446017024
 32
0.0
 13
475.236721577426
 23
2485.611446017024
 33
0.0
  0
SOLID
  5
1F4
  8
0
 62
     5
 10
468.003388244092
 20
2267.889763891481
 30
0.0
 11
482.470054910759
 21
2267.889763891481
 31
0.0
 12
475.236721577426
 22
2224.489763891481
 32
0.0
 13
475.236721577426
 23
2224.489763891481
 33
0.0
  0
TEXT
  5
1F5
  8
0
 62
     5
 10
464.496612436908
 20
2305.034029238018
 30
0.0
 40
43.4
  1
260
 50
90.0
  0
POINT
  5
1F6
  8
DEFPOINTS
 62
     0
 10
861.281660466086
 20
2485.611446017024
 30
0.0
  0
POINT
  5
1F7
  8
DEFPOINTS
 62
     0
 10
617.863607604862
 20
2224.489763891481
 30
0.0
  0
POINT
  5
1F8
  8
DEFPOINTS
 62
     0
 10
475.236721577426
 20
2224.489763891481
 30
0.0
  0
ENDBLK
  8
0
  0
BLOCK
  8
0
  2
*D14
 70
     1
 10
0.0
 20
0.0
 30
0.0
  0
LINE
  5
202
  8
0
 62
     5
 10
1218.596341070284
 20
2492.430203063478
 30
0.0
 11
1246.343139761949
 21
2518.295813516348
 31
0.0
  0
LINE
  5
203
  8
0
 62
     5
 10
1462.014393931507
 20
2231.308520937935
 30
0.0
 11
1489.761192623172
 21
2257.174131390805
 31
0.0
  0
LINE
  5
204
  8
0
 62
     5
 10
1268.621864739363
 20
2479.731342647675
 30
0.0
 11
1452.853106437362
 21
2282.101088166569
 31
0.0
  0
SOLID
  5
205
  8
0
 62
     5
 10
1273.912817043066
 20
2484.663576911277
 30
0.0
 11
1263.33091243566
 21
2474.799108384073
 31
0.0
 12
1239.028459157751
 22
2511.477056469894
 32
0.0
 13
1239.028459157751
 23
2511.477056469894
 33
0.0
  0
SOLID
  5
206
  8
0
 62
     5
 10
1447.562154133659
 20
2277.168853902967
 30
0.0
 11
1458.144058741065
 21
2287.033322430171
 31
0.0
 12
1482.446512018974
 22
2250.35537434435
 32
0.0
 13
1482.446512018974
 23
2250.35537434435
 33
0.0
  0
TEXT
  5
207
  8
0
 62
     5
 10
1334.247674757828
 20
2425.126859443651
 30
0.0
 40
43.4
  1
360
 50
312.990391669173
  0
POINT
  5
208
  8
DEFPOINTS
 62
     0
 10
1211.281660466086
 20
2485.611446017024
 30
0.0
  0
POINT
  5
209
  8
DEFPOINTS
 62
     0
 10
1454.69971332731
 20
2224.489763891481
 30
0.0
  0
POINT
  5
20A
  8
DEFPOINTS
 62
     0
 10
1482.446512018974
 20
2250.35537434435
 30
0.0
  0
ENDBLK
  8
0
  0
BLOCK
  8
0
  2
*D15
 70
     1
 10
0.0
 20
0.0
 30
0.0
  0
LINE
  5
2B6
  8
0
 62
     5
 10
1823.781609092543
 20
2767.488439555955
 30
0.0
 11
2372.012561401362
 21
2767.488439555955
 31
0.0
  0
LINE
  5
2B7
  8
0
 62
     5
 10
1518.781609092543
 20
3617.899163848631
 30
0.0
 11
2372.012561401362
 21
3617.899163848631
 31
0.0
  0
LINE
  5
2B8
  8
0
 62
     5
 10
2352.012561401362
 20
2854.288439555955
 30
0.0
 11
2352.012561401362
 21
3531.099163848631
 31
0.0
  0
SOLID
  5
2B9
  8
0
 62
     5
 10
2337.545894734695
 20
2854.288439555955
 30
0.0
 11
2366.479228068029
 21
2854.288439555955
 31
0.0
 12
2352.012561401362
 22
2767.488439555955
 32
0.0
 13
2352.012561401362
 23
2767.488439555955
 33
0.0
  0
SOLID
  5
2BA
  8
0
 62
     5
 10
2366.479228068029
 20
3531.099163848631
 30
0.0
 11
2337.545894734695
 21
3531.099163848631
 31
0.0
 12
2352.012561401362
 22
3617.899163848631
 32
0.0
 13
2352.012561401362
 23
3617.899163848631
 33
0.0
  0
TEXT
  5
2BB
  8
0
 62
     5
 10
2330.532343120324
 20
3091.979749860547
 30
0.0
 40
86.8
  1
850
 50
90.0
  0
POINT
  5
2BC
  8
DEFPOINTS
 62
     0
 10
1803.781609092543
 20
2767.488439555955
 30
0.0
  0
POINT
  5
2BD
  8
DEFPOINTS
 62
     0
 10
1498.781609092543
 20
3617.899163848631
 30
0.0
  0
POINT
  5
2BE
  8
DEFPOINTS
 62
     0
 10
2352.012561401362
 20
3617.899163848631
 30
0.0
  0
ENDBLK
  8
0
  0
BLOCK
  8
0
  2
*D16
 70
     1
 10
0.0
 20
0.0
 30
0.0
  0
LINE
  5
2C2
  8
0
 62
     5
 10
1823.781609092543
 20
3217.898601070063
 30
0.0
 11
2142.055065520932
 21
3217.898601070063
 31
0.0
  0
LINE
  5
2C3
  8
0
 62
     5
 10
1823.781609092543
 20
2767.488439555955
 30
0.0
 11
2142.055065520932
 21
2767.488439555955
 31
0.0
  0
LINE
  5
2C4
  8
0
 62
     5
 10
2122.055065520932
 20
3131.098601070062
 30
0.0
 11
2122.055065520932
 21
2854.288439555955
 31
0.0
  0
SOLID
  5
2C5
  8
0
 62
     5
 10
2136.521732187599
 20
3131.098601070062
 30
0.0
 11
2107.588398854266
 21
3131.098601070062
 31
0.0
 12
2122.055065520932
 22
3217.898601070063
 32
0.0
 13
2122.055065520932
 23
3217.898601070063
 33
0.0
  0
SOLID
  5
2C6
  8
0
 62
     5
 10
2107.588398854266
 20
2854.288439555955
 30
0.0
 11
2136.521732187599
 21
2854.288439555955
 31
0.0
 12
2122.055065520932
 22
2767.488439555955
 32
0.0
 13
2122.055065520932
 23
2767.488439555955
 33
0.0
  0
TEXT
  5
2C7
  8
0
 62
     5
 10
2100.574847239895
 20
2893.666917311645
 30
0.0
 40
86.8
  1
450
 50
90.0
  0
POINT
  5
2C8
  8
DEFPOINTS
 62
     0
 10
1803.781609092543
 20
3217.898601070063
 30
0.0
  0
POINT
  5
2C9
  8
DEFPOINTS
 62
     0
 10
1803.781609092543
 20
2767.488439555955
 30
0.0
  0
POINT
  5
2CA
  8
DEFPOINTS
 62
     0
 10
2122.055065520932
 20
2767.488439555955
 30
0.0
  0
ENDBLK
  8
0
  0
BLOCK
  8
0
  2
*D17
 70
     1
 10
0.0
 20
0.0
 30
0.0
  0
LINE
  5
2CE
  8
0
 62
     5
 10
1823.781609092543
 20
3217.898601070063
 30
0.0
 11
2142.055065520932
 21
3217.898601070063
 31
0.0
  0
LINE
  5
2CF
  8
0
 62
     5
 10
1518.781609092543
 20
3617.899163848631
 30
0.0
 11
2142.055065520932
 21
3617.899163848631
 31
0.0
  0
LINE
  5
2D0
  8
0
 62
     5
 10
2122.055065520932
 20
3304.698601070063
 30
0.0
 11
2122.055065520932
 21
3531.099163848631
 31
0.0
  0
SOLID
  5
2D1
  8
0
 62
     5
 10
2107.588398854266
 20
3304.698601070063
 30
0.0
 11
2136.521732187599
 21
3304.698601070063
 31
0.0
 12
2122.055065520932
 22
3217.898601070063
 32
0.0
 13
2122.055065520932
 23
3217.898601070063
 33
0.0
  0
SOLID
  5
2D2
  8
0
 62
     5
 10
2136.521732187599
 20
3531.099163848631
 30
0.0
 11
2107.588398854266
 21
3531.099163848631
 31
0.0
 12
2122.055065520932
 22
3617.899163848631
 32
0.0
 13
2122.055065520932
 23
3617.899163848631
 33
0.0
  0
TEXT
  5
2D3
  8
0
 62
     5
 10
2100.574847239895
 20
3318.872279457983
 30
0.0
 40
86.8
  1
400
 50
90.0
  0
POINT
  5
2D4
  8
DEFPOINTS
 62
     0
 10
1803.781609092543
 20
3217.898601070063
 30
0.0
  0
POINT
  5
2D5
  8
DEFPOINTS
 62
     0
 10
1498.781609092543
 20
3617.899163848631
 30
0.0
  0
POINT
  5
2D6
  8
DEFPOINTS
 62
     0
 10
2122.055065520932
 20
3617.899163848631
 30
0.0
  0
ENDBLK
  8
0
  0
BLOCK
  8
0
  2
*D18
 70
     1
 10
0.0
 20
0.0
 30
0.0
  0
LINE
  5
2DA
  8
0
 62
     5
 10
1148.781609092543
 20
3698.732858840971
 30
0.0
 11
1148.781609092543
 21
3802.419597364855
 31
0.0
  0
LINE
  5
2DB
  8
0
 62
     5
 10
1498.781609092543
 20
3698.732858840971
 30
0.0
 11
1498.781609092543
 21
3802.419597364855
 31
0.0
  0
LINE
  5
2DC
  8
0
 62
     5
 10
1235.581609092543
 20
3782.419597364855
 30
0.0
 11
1411.981609092543
 21
3782.419597364855
 31
0.0
  0
SOLID
  5
2DD
  8
0
 62
     5
 10
1235.581609092543
 20
3796.886264031521
 30
0.0
 11
1235.581609092543
 21
3767.952930698188
 31
0.0
 12
1148.781609092543
 22
3782.419597364855
 32
0.0
 13
1148.781609092543
 23
3782.419597364855
 33
0.0
  0
SOLID
  5
2DE
  8
0
 62
     5
 10
1411.981609092543
 20
3767.952930698188
 30
0.0
 11
1411.981609092543
 21
3796.886264031521
 31
0.0
 12
1498.781609092543
 22
3782.419597364855
 32
0.0
 13
1498.781609092543
 23
3782.419597364855
 33
0.0
  0
TEXT
  5
2DF
  8
0
 62
     5
 10
1222.978744153935
 20
3803.959024377132
 30
0.0
 40
86.8
  1
350
  0
POINT
  5
2E0
  8
DEFPOINTS
 62
     0
 10
1148.781609092543
 20
3678.732858840971
 30
0.0
  0
POINT
  5
2E1
  8
DEFPOINTS
 62
     0
 10
1498.781609092543
 20
3678.732858840971
 30
0.0
  0
POINT
  5
2E2
  8
DEFPOINTS
 62
     0
 10
1498.781609092543
 20
3782.419597364855
 30
0.0
  0
ENDBLK
  8
0
  0
BLOCK
  8
0
  2
*D19
 70
     1
 10
0.0
 20
0.0
 30
0.0
  0
LINE
  5
2E6
  8
0
 62
     5
 10
1048.781609092543
 20
3237.898601070063
 30
0.0
 11
1048.781609092543
 21
3376.158166007168
 31
0.0
  0
LINE
  5
2E7
  8
0
 62
     5
 10
1598.781609092543
 20
3237.898601070063
 30
0.0
 11
1598.781609092543
 21
3376.158166007168
 31
0.0
  0
LINE
  5
2E8
  8
0
 62
     5
 10
1135.581609092543
 20
3356.158166007168
 30
0.0
 11
1511.981609092543
 21
3356.158166007168
 31
0.0
  0
SOLID
  5
2E9
  8
0
 62
     5
 10
1135.581609092543
 20
3370.624832673834
 30
0.0
 11
1135.581609092543
 21
3341.691499340501
 31
0.0
 12
1048.781609092543
 22
3356.158166007168
 32
0.0
 13
1048.781609092543
 23
3356.158166007168
 33
0.0
  0
SOLID
  5
2EA
  8
0
 62
     5
 10
1511.981609092543
 20
3341.691499340501
 30
0.0
 11
1511.981609092543
 21
3370.624832673834
 31
0.0
 12
1598.781609092543
 22
3356.158166007168
 32
0.0
 13
1598.781609092543
 23
3356.158166007168
 33
0.0
  0
TEXT
  5
2EB
  8
0
 62
     5
 10
1223.008348519555
 20
3377.638384288205
 30
0.0
 40
86.8
  1
550
  0
POINT
  5
2EC
  8
DEFPOINTS
 62
     0
 10
1048.781609092543
 20
3217.898601070063
 30
0.0
  0
POINT
  5
2ED
  8
DEFPOINTS
 62
     0
 10
1598.781609092543
 20
3217.898601070063
 30
0.0
  0
POINT
  5
2EE
  8
DEFPOINTS
 62
     0
 10
1598.781609092543
 20
3356.158166007168
 30
0.0
  0
ENDBLK
  8
0
  0
BLOCK
  8
0
  2
*D20
 70
     1
 10
0.0
 20
0.0
 30
0.0
  0
ARC
  5
2F2
  8
0
 62
     5
 10
1323.781609092543
 20
2876.720412508848
 30
0.0
 40
151.1451825617041
 50
9.776148951974
 51
30.453138981778
  0
ARC
  5
2F3
  8
0
 62
     5
 10
1323.781609092543
 20
2876.720412508848
 30
0.0
 40
151.1451825617041
 50
149.546861018222
 51
170.223851048026
  0
ARC
  5
2F4
  8
0
 62
     5
 10
1323.781609092543
 20
2876.720412508848
 30
0.0
 40
151.1451825617041
 50
51.130129011581
 51
128.869870988419
  0
SOLID
  5
2F5
  8
0
 62
     5
 10
1460.920762946981
 20
2959.232863940301
 30
0.0
 11
1447.230043861572
 21
2947.418840266342
 31
0.0
 12
1418.633332382398
 22
2994.398009359547
 32
0.0
 13
1418.633332382398
 23
2994.398009359547
 33
0.0
  0
SOLID
  5
2F6
  8
0
 62
     5
 10
1200.333174323514
 20
2947.418840266342
 30
0.0
 11
1186.642455238106
 21
2959.232863940301
 31
0.0
 12
1228.929885802688
 22
2994.398009359547
 32
0.0
 13
1228.929885802688
 23
2994.398009359547
 33
0.0
  0
TEXT
  5
2F7
  8
0
 62
     5
 10
1267.200265299908
 20
3041.2907314962
 30
0.0
 40
54.25
  1
78°
 50
0.000000000001
  0
POINT
  5
2F8
  8
DEFPOINTS
 62
     0
 10
1357.670374308838
 20
3024.017451867165
 30
0.0
  0
POINT
  5
2F9
  8
DEFPOINTS
 62
     0
 10
1359.866000916862
 20
2921.488439555955
 30
0.0
  0
POINT
  5
2FA
  8
DEFPOINTS
 62
     0
 10
1287.697217268224
 20
2921.488439555955
 30
0.0
  0
POINT
  5
2FB
  8
DEFPOINTS
 62
     0
 10
1048.781609092543
 20
3217.898601070063
 30
0.0
  0
POINT
  5
2FC
  8
DEFPOINTS
 62
     0
 10
1598.781609092543
 20
3217.898601070063
 30
0.0
  0
ENDBLK
  8
0
  0
BLOCK
  8
0
  2
*D21
 70
     1
 10
0.0
 20
0.0
 30
0.0
  0
LINE
  5
300
  8
0
 62
     5
 10
873.781609092529
 20
3207.898601070063
 30
0.0
 11
873.781609092529
 21
3137.513348233931
 31
0.0
  0
LINE
  5
301
  8
0
 62
     5
 10
1048.781609092529
 20
3207.898601070063
 30
0.0
 11
1048.781609092529
 21
3137.513348233931
 31
0.0
  0
LINE
  5
302
  8
0
 62
     5
 10
917.181609092529
 20
3147.513348233931
 30
0.0
 11
1005.381609092529
 21
3147.513348233931
 31
0.0
  0
SOLID
  5
303
  8
0
 62
     5
 10
917.181609092529
 20
3154.746681567264
 30
0.0
 11
917.181609092529
 21
3140.280014900598
 31
0.0
 12
873.781609092529
 22
3147.513348233931
 32
0.0
 13
873.781609092529
 23
3147.513348233931
 33
0.0
  0
SOLID
  5
304
  8
0
 62
     5
 10
1005.381609092529
 20
3140.280014900598
 30
0.0
 11
1005.381609092529
 21
3154.746681567264
 31
0.0
 12
1048.781609092529
 22
3147.513348233931
 32
0.0
 13
1048.781609092529
 23
3147.513348233931
 33
0.0
  0
TEXT
  5
305
  8
0
 62
     5
 10
908.852277578204
 20
3158.253457374449
 30
0.0
 40
43.4
  1
180
  0
POINT
  5
306
  8
DEFPOINTS
 62
     0
 10
873.781609092529
 20
3217.898601070063
 30
0.0
  0
POINT
  5
307
  8
DEFPOINTS
 62
     0
 10
1048.781609092529
 20
3217.898601070063
 30
0.0
  0
POINT
  5
308
  8
DEFPOINTS
 62
     0
 10
1048.781609092529
 20
3147.513348233931
 30
0.0
  0
ENDBLK
  8
0
  0
BLOCK
  8
0
  2
*D22
 70
     1
 10
0.0
 20
0.0
 30
0.0
  0
LINE
  5
30C
  8
0
 62
     5
 10
1823.781609092543
 20
2767.488439555955
 30
0.0
 11
2142.257363281557
 21
2767.488439555955
 31
0.0
  0
LINE
  5
30D
  8
0
 62
     5
 10
1823.781609092543
 20
2117.899163848631
 30
0.0
 11
2142.257363281557
 21
2117.899163848631
 31
0.0
  0
LINE
  5
30E
  8
0
 62
     5
 10
2122.257363281557
 20
2680.688439555954
 30
0.0
 11
2122.257363281557
 21
2204.699163848631
 31
0.0
  0
SOLID
  5
30F
  8
0
 62
     5
 10
2136.724029948224
 20
2680.688439555954
 30
0.0
 11
2107.79069661489
 21
2680.688439555954
 31
0.0
 12
2122.257363281557
 22
2767.488439555955
 32
0.0
 13
2122.257363281557
 23
2767.488439555955
 33
0.0
  0
SOLID
  5
310
  8
0
 62
     5
 10
2107.79069661489
 20
2204.699163848631
 30
0.0
 11
2136.724029948224
 21
2204.699163848631
 31
0.0
 12
2122.257363281557
 22
2117.899163848631
 32
0.0
 13
2122.257363281557
 23
2117.899163848631
 33
0.0
  0
TEXT
  5
311
  8
0
 62
     5
 10
2100.777145000519
 20
2342.157376054271
 30
0.0
 40
86.8
  1
650
 50
90.0
  0
POINT
  5
312
  8
DEFPOINTS
 62
     0
 10
1803.781609092543
 20
2767.488439555955
 30
0.0
  0
POINT
  5
313
  8
DEFPOINTS
 62
     0
 10
1803.781609092543
 20
2117.899163848631
 30
0.0
  0
POINT
  5
314
  8
DEFPOINTS
 62
     0
 10
2122.257363281557
 20
2117.899163848631
 30
0.0
  0
ENDBLK
  8
0
  0
BLOCK
  8
0
  2
*D23
 70
     1
 10
0.0
 20
0.0
 30
0.0
  0
LINE
  5
318
  8
0
 62
     5
 10
1823.781609092543
 20
2117.899163848631
 30
0.0
 11
2142.257363281557
 21
2117.899163848631
 31
0.0
  0
LINE
  5
319
  8
0
 62
     5
 10
1823.781609092543
 20
1117.901496352971
 30
0.0
 11
2142.257363281557
 21
1117.901496352971
 31
0.0
  0
LINE
  5
31A
  8
0
 62
     5
 10
2122.257363281557
 20
2031.099163848631
 30
0.0
 11
2122.257363281557
 21
1204.701496352971
 31
0.0
  0
SOLID
  5
31B
  8
0
 62
     5
 10
2136.724029948224
 20
2031.099163848631
 30
0.0
 11
2107.79069661489
 21
2031.099163848631
 31
0.0
 12
2122.257363281557
 22
2117.899163848631
 32
0.0
 13
2122.257363281557
 23
2117.899163848631
 33
0.0
  0
SOLID
  5
31C
  8
0
 62
     5
 10
2107.79069661489
 20
1204.701496352971
 30
0.0
 11
2136.724029948224
 21
1204.701496352971
 31
0.0
 12
2122.257363281557
 22
1117.901496352971
 32
0.0
 13
2122.257363281557
 23
1117.901496352971
 33
0.0
  0
TEXT
  5
31D
  8
0
 62
     5
 10
2100.77714500052
 20
1479.322294630133
 30
0.0
 40
86.8
  1
1000
 50
90.0
  0
POINT
  5
31E
  8
DEFPOINTS
 62
     0
 10
1803.781609092543
 20
2117.899163848631
 30
0.0
  0
POINT
  5
31F
  8
DEFPOINTS
 62
     0
 10
1803.781609092543
 20
1117.901496352971
 30
0.0
  0
POINT
  5
320
  8
DEFPOINTS
 62
     0
 10
2122.257363281557
 20
1117.901496352971
 30
0.0
  0
ENDBLK
  8
0
  0
BLOCK
  8
0
  2
*D24
 70
     1
 10
0.0
 20
0.0
 30
0.0
  0
LINE
  5
324
  8
0
 62
     5
 10
1823.781609092543
 20
1117.901496352971
 30
0.0
 11
2142.257363281557
 21
1117.901496352971
 31
0.0
  0
LINE
  5
325
  8
0
 62
     5
 10
1832.281609092543
 20
117.901496352971
 30
0.0
 11
2142.257363281557
 21
117.901496352971
 31
0.0
  0
LINE
  5
326
  8
0
 62
     5
 10
2122.257363281557
 20
1031.101496352971
 30
0.0
 11
2122.257363281557
 21
204.701496352971
 31
0.0
  0
SOLID
  5
327
  8
0
 62
     5
 10
2136.724029948224
 20
1031.101496352971
 30
0.0
 11
2107.79069661489
 21
1031.101496352971
 31
0.0
 12
2122.257363281557
 22
1117.901496352971
 32
0.0
 13
2122.257363281557
 23
1117.901496352971
 33
0.0
  0
SOLID
  5
328
  8
0
 62
     5
 10
2107.79069661489
 20
204.701496352971
 30
0.0
 11
2136.724029948224
 21
204.701496352971
 31
0.0
 12
2122.257363281557
 22
117.901496352971
 32
0.0
 13
2122.257363281557
 23
117.901496352971
 33
0.0
  0
TEXT
  5
329
  8
0
 62
     5
 10
2100.77714500052
 20
479.323460882303
 30
0.0
 40
86.8
  1
1000
 50
90.0
  0
POINT
  5
32A
  8
DEFPOINTS
 62
     0
 10
1803.781609092543
 20
1117.901496352971
 30
0.0
  0
POINT
  5
32B
  8
DEFPOINTS
 62
     0
 10
1812.281609092543
 20
117.901496352971
 30
0.0
  0
POINT
  5
32C
  8
DEFPOINTS
 62
     0
 10
2122.257363281557
 20
117.901496352971
 30
0.0
  0
ENDBLK
  8
0
  0
BLOCK
  8
0
  2
*D25
 70
     1
 10
0.0
 20
0.0
 30
0.0
  0
LINE
  5
330
  8
0
 62
     5
 10
1518.781609092543
 20
3617.899163848631
 30
0.0
 11
2632.584304558911
 21
3617.899163848631
 31
0.0
  0
LINE
  5
331
  8
0
 62
     5
 10
2089.365807717617
 20
117.902243153201
 30
0.0
 11
2632.584304558911
 21
117.902243153201
 31
0.0
  0
LINE
  5
332
  8
0
 62
     5
 10
2612.584304558911
 20
3531.099163848631
 30
0.0
 11
2612.584304558911
 21
204.702243153201
 31
0.0
  0
SOLID
  5
333
  8
0
 62
     5
 10
2627.050971225578
 20
3531.099163848631
 30
0.0
 11
2598.117637892244
 21
3531.099163848631
 31
0.0
 12
2612.584304558911
 22
3617.899163848631
 32
0.0
 13
2612.584304558911
 23
3617.899163848631
 33
0.0
  0
SOLID
  5
334
  8
0
 62
     5
 10
2598.117637892244
 20
204.702243153201
 30
0.0
 11
2627.050971225577
 21
204.702243153201
 31
0.0
 12
2612.584304558911
 22
117.902243153201
 32
0.0
 13
2612.584304558911
 23
117.902243153201
 33
0.0
  0
TEXT
  5
335
  8
0
 62
     5
 10
2591.044877546633
 20
1733.378466120288
 30
0.0
 40
86.8
  1
3500
 50
90.0
  0
POINT
  5
336
  8
DEFPOINTS
 62
     0
 10
1498.781609092543
 20
3617.899163848631
 30
0.0
  0
POINT
  5
337
  8
DEFPOINTS
 62
     0
 10
2069.365807717617
 20
117.902243153201
 30
0.0
  0
POINT
  5
338
  8
DEFPOINTS
 62
     0
 10
2612.584304558911
 20
117.902243153201
 30
0.0
  0
ENDBLK
  8
0
  0
BLOCK
  8
0
  2
*D26
 70
     1
 10
0.0
 20
0.0
 30
0.0
  0
LINE
  5
33C
  8
0
 62
     5
 10
1287.697217268224
 20
2931.488439555955
 30
0.0
 11
1287.697217268224
 21
2978.253674100513
 31
0.0
  0
LINE
  5
33D
  8
0
 62
     5
 10
1359.866000916862
 20
2931.488439555955
 30
0.0
 11
1359.866000916862
 21
2978.253674100513
 31
0.0
  0
LINE
  5
33E
  8
0
 62
     5
 10
1403.266000916862
 20
2968.253674100513
 30
0.0
 11
1528.331894504857
 21
2968.253674100513
 31
0.0
  0
LINE
  5
33F
  8
0
 62
     5
 10
1287.697217268224
 20
2968.253674100513
 30
0.0
 11
1359.866000916862
 21
2968.253674100513
 31
0.0
  0
LINE
  5
340
  8
0
 62
     5
 10
1244.297217268224
 20
2968.253674100513
 30
0.0
 11
1200.897217268224
 21
2968.253674100513
 31
0.0
  0
SOLID
  5
341
  8
0
 62
     5
 10
1244.297217268224
 20
2961.02034076718
 30
0.0
 11
1244.297217268224
 21
2975.487007433846
 31
0.0
 12
1287.697217268224
 22
2968.253674100513
 32
0.0
 13
1287.697217268224
 23
2968.253674100513
 33
0.0
  0
SOLID
  5
342
  8
0
 62
     5
 10
1403.266000916862
 20
2975.487007433846
 30
0.0
 11
1403.266000916862
 21
2961.02034076718
 31
0.0
 12
1359.866000916862
 22
2968.253674100513
 32
0.0
 13
1359.866000916862
 23
2968.253674100513
 33
0.0
  0
TEXT
  5
343
  8
0
 62
     5
 10
1453.794377451651
 20
2978.993783241031
 30
0.0
 40
43.4
  1
70
  0
POINT
  5
344
  8
DEFPOINTS
 62
     0
 10
1287.697217268224
 20
2921.488439555955
 30
0.0
  0
POINT
  5
345
  8
DEFPOINTS
 62
     0
 10
1359.866000916862
 20
2921.488439555955
 30
0.0
  0
POINT
  5
346
  8
DEFPOINTS
 62
     0
 10
1359.866000916862
 20
2968.253674100513
 30
0.0
  0
ENDBLK
  8
0
  0
BLOCK
  8
0
  2
*D27
 70
     1
 10
0.0
 20
0.0
 30
0.0
  0
LINE
  5
34A
  8
0
 62
     5
 10
1148.781609092543
 20
2593.512942369995
 30
0.0
 11
1148.781609092543
 21
2483.471067017878
 31
0.0
  0
LINE
  5
34B
  8
0
 62
     5
 10
1498.781609092543
 20
2593.512942369995
 30
0.0
 11
1498.781609092543
 21
2483.471067017878
 31
0.0
  0
LINE
  5
34C
  8
0
 62
     5
 10
1192.181609092543
 20
2493.471067017878
 30
0.0
 11
1455.381609092543
 21
2493.471067017878
 31
0.0
  0
SOLID
  5
34D
  8
0
 62
     5
 10
1192.181609092543
 20
2500.704400351211
 30
0.0
 11
1192.181609092543
 21
2486.237733684545
 31
0.0
 12
1148.781609092543
 22
2493.471067017878
 32
0.0
 13
1148.781609092543
 23
2493.471067017878
 33
0.0
  0
SOLID
  5
34E
  8
0
 62
     5
 10
1455.381609092543
 20
2486.237733684545
 30
0.0
 11
1455.381609092543
 21
2500.704400351211
 31
0.0
 12
1498.781609092543
 22
2493.471067017878
 32
0.0
 13
1498.781609092543
 23
2493.471067017878
 33
0.0
  0
TEXT
  5
34F
  8
0
 62
     5
 10
1273.380176623239
 20
2504.240780524017
 30
0.0
 40
43.4
  1
350
  0
POINT
  5
350
  8
DEFPOINTS
 62
     0
 10
1148.781609092543
 20
2603.512942369995
 30
0.0
  0
POINT
  5
351
  8
DEFPOINTS
 62
     0
 10
1498.781609092543
 20
2603.512942369995
 30
0.0
  0
POINT
  5
352
  8
DEFPOINTS
 62
     0
 10
1498.781609092543
 20
2493.471067017878
 30
0.0
  0
ENDBLK
  8
0
  0
BLOCK
  8
0
  2
*D28
 70
     1
 10
0.0
 20
0.0
 30
0.0
  0
LINE
  5
356
  8
0
 62
     5
 10
1138.781609092543
 20
2603.512942369995
 30
0.0
 11
752.736670203883
 21
2603.512942369995
 31
0.0
  0
LINE
  5
357
  8
0
 62
     5
 10
895.363556231319
 20
2342.391260244452
 30
0.0
 11
752.736670203883
 21
2342.391260244452
 31
0.0
  0
LINE
  5
358
  8
0
 62
     5
 10
762.736670203883
 20
2560.112942369995
 30
0.0
 11
762.736670203883
 21
2385.791260244452
 31
0.0
  0
SOLID
  5
359
  8
0
 62
     5
 10
769.970003537216
 20
2560.112942369995
 30
0.0
 11
755.503336870549
 21
2560.112942369995
 31
0.0
 12
762.736670203883
 22
2603.512942369995
 32
0.0
 13
762.736670203883
 23
2603.512942369995
 33
0.0
  0
SOLID
  5
35A
  8
0
 62
     5
 10
755.503336870549
 20
2385.791260244452
 30
0.0
 11
769.970003537216
 21
2385.791260244452
 31
0.0
 12
762.736670203883
 22
2342.391260244452
 32
0.0
 13
762.736670203883
 23
2342.391260244452
 33
0.0
  0
TEXT
  5
35B
  8
0
 62
     5
 10
751.996561063364
 20
2422.935525590989
 30
0.0
 40
43.4
  1
260
 50
90.0
  0
POINT
  5
35C
  8
DEFPOINTS
 62
     0
 10
1148.781609092543
 20
2603.512942369995
 30
0.0
  0
POINT
  5
35D
  8
DEFPOINTS
 62
     0
 10
905.363556231319
 20
2342.391260244452
 30
0.0
  0
POINT
  5
35E
  8
DEFPOINTS
 62
     0
 10
762.736670203883
 20
2342.391260244452
 30
0.0
  0
ENDBLK
  8
0
  0
BLOCK
  8
0
  2
*D29
 70
     1
 10
0.0
 20
0.0
 30
0.0
  0
LINE
  5
362
  8
0
 62
     5
 10
1506.096289696741
 20
2610.33169941645
 30
0.0
 11
1533.843088388406
 21
2636.197309869319
 31
0.0
  0
LINE
  5
363
  8
0
 62
     5
 10
1749.514342557964
 20
2349.210017290907
 30
0.0
 11
1777.261141249629
 21
2375.075627743776
 31
0.0
  0
LINE
  5
364
  8
0
 62
     5
 10
1556.12181336582
 20
2597.632839000646
 30
0.0
 11
1740.353055063819
 21
2400.00258451954
 31
0.0
  0
SOLID
  5
365
  8
0
 62
     5
 10
1561.412765669523
 20
2602.565073264248
 30
0.0
 11
1550.830861062117
 21
2592.700604737044
 31
0.0
 12
1526.528407784208
 22
2629.378552822865
 32
0.0
 13
1526.528407784208
 23
2629.378552822865
 33
0.0
  0
SOLID
  5
366
  8
0
 62
     5
 10
1735.062102760116
 20
2395.070350255938
 30
0.0
 11
1745.644007367522
 21
2404.934818783142
 31
0.0
 12
1769.946460645431
 22
2368.256870697322
 32
0.0
 13
1769.946460645431
 23
2368.256870697322
 33
0.0
  0
TEXT
  5
367
  8
0
 62
     5
 10
1621.747623384285
 20
2543.028355796622
 30
0.0
 40
43.4
  1
360
 50
312.990391669173
  0
POINT
  5
368
  8
DEFPOINTS
 62
     0
 10
1498.781609092543
 20
2603.512942369995
 30
0.0
  0
POINT
  5
369
  8
DEFPOINTS
 62
     0
 10
1742.199661953766
 20
2342.391260244452
 30
0.0
  0
POINT
  5
36A
  8
DEFPOINTS
 62
     0
 10
1769.946460645431
 20
2368.256870697322
 30
0.0
  0
ENDBLK
  8
0
  0
ENDSEC
  0
SECTION
  2
ENTITIES
  0
LINE
  5
47D
  8
0
 10
-175.0
 20
3449.99766749566
 30
0.0
 11
-450.0
 21
3154.997104717091
 31
0.0
  0
LINE
  5
47E
  8
0
 10
-450.0
 20
3154.997104717091
 30
0.0
 11
-450.0
 21
2478.384416862688
 31
0.0
  0
LINE
  5
47F
  8
0
 10
-450.0
 20
2478.384416862688
 30
0.0
 11
-181.737048223648
 21
2478.384416862688
 31
0.0
  0
LINE
  5
480
  8
0
 10
-181.737048223648
 20
2478.384416862688
 30
0.0
 11
-450.0
 21
2190.610883238455
 31
0.0
  0
LINE
  5
481
  8
0
 10
-450.0
 20
2190.610883238455
 30
0.0
 11
-450.0
 21
0.0
 31
0.0
  0
LINE
  5
482
  8
0
 10
-450.0
 20
0.0
 30
0.0
 11
450.0
 21
0.0
 31
0.0
  0
LINE
  5
483
  8
0
 10
450.0
 20
0.0
 30
0.0
 11
450.0
 21
2190.610883238455
 31
0.0
  0
LINE
  5
484
  8
0
 10
450.0
 20
2190.610883238455
 30
0.0
 11
181.737048223648
 21
2478.384416862688
 31
0.0
  0
LINE
  5
485
  8
0
 10
181.737048223648
 20
2478.384416862688
 30
0.0
 11
450.0
 21
2478.384416862688
 31
0.0
  0
LINE
  5
486
  8
0
 10
450.0
 20
2478.384416862688
 30
0.0
 11
450.0
 21
3154.997104717091
 31
0.0
  0
LINE
  5
487
  8
0
 10
450.0
 20
3154.997104717091
 30
0.0
 11
175.0
 21
3449.99766749566
 31
0.0
  0
LINE
  5
488
  8
0
 10
175.0
 20
3449.99766749566
 30
0.0
 11
450.0
 21
3449.99766749566
 31
0.0
  0
LINE
  5
489
  8
0
 10
450.0
 20
3449.99766749566
 30
0.0
 11
450.0
 21
4834.857318551076
 31
0.0
  0
LINE
  5
48A
  8
0
 10
450.0
 20
4834.857318551076
 30
0.0
 11
-450.0
 21
4834.857318551076
 31
0.0
  0
LINE
  5
48B
  8
0
 10
-450.0
 20
4834.857318551076
 30
0.0
 11
-450.0
 21
3449.99766749566
 31
0.0
  0
LINE
  5
48C
  8
0
 10
-450.0
 20
3449.99766749566
 30
0.0
 11
-175.0
 21
3449.99766749566
 31
0.0
  0
LINE
  5
48D
  8
0
 10
36.084391824319
 20
2803.586943202983
 30
0.0
 11
275.0
 21
3099.997104717091
 31
0.0
  0
LINE
  5
48E
  8
0
 10
275.0
 20
3099.997104717091
 30
0.0
 11
-275.0
 21
3099.997104717091
 31
0.0
  0
LINE
  5
48F
  8
0
 10
-275.0
 20
3099.997104717091
 30
0.0
 11
-36.084391824319
 21
2803.586943202983
 31
0.0
  0
LINE
  5
490
  8
0
 10
-36.084391824319
 20
2803.586943202983
 30
0.0
 11
36.084391824319
 21
2803.586943202983
 31
0.0
  0
ENDSEC
  0
EOF
